# This file uses centimeters as units for non-parametric coordinates.

mtllib px.mtl
g default
v -353.776062 -0.000000 -353.776062
v 0.000000 0.000000 -483.159729
v -329.427094 166.145844 -329.427094
v -329.427094 -166.145844 -329.427094
v -192.881958 0.000000 -450.694458
v 0.000000 -192.881958 -450.694458
v 192.881958 -0.000000 -450.694458
v -0.000000 192.881958 -450.694458
v -179.513885 -179.513885 -420.138885
v 179.513885 -179.513885 -420.138885
v 179.513885 179.513885 -420.138885
v -179.513885 179.513885 -420.138885
v -280.092590 -280.092590 -280.092590
v -166.145844 -329.427094 -329.427094
v 0.000000 -353.776062 -353.776062
v 166.145844 -329.427094 -329.427094
v 280.092590 -280.092590 -280.092590
v 329.427094 -166.145844 -329.427094
v 353.776062 0.000000 -353.776062
v 329.427094 166.145844 -329.427094
v 280.092590 280.092590 -280.092590
v 166.145844 329.427094 -329.427094
v -0.000000 353.776062 -353.776062
v -166.145844 329.427094 -329.427094
v -280.092590 280.092590 -280.092590
vt 1.000000 0.265182
vt 1.000000 0.000000
vt 0.753711 0.246289
vt 0.734818 0.000000
vt 0.500000 0.000000
vt 0.500000 0.227395
vt 0.500000 0.500000
vt 0.772605 0.500000
vt 1.000000 0.500000
vt 0.265182 0.000000
vt 0.000000 0.000000
vt 0.246289 0.246289
vt 0.000000 0.265182
vt 0.000000 0.500000
vt 0.227395 0.500000
vt 0.000000 0.734818
vt 0.000000 1.000000
vt 0.246289 0.753711
vt 0.265182 1.000000
vt 0.500000 1.000000
vt 0.500000 0.772605
vt 0.734818 1.000000
vt 1.000000 1.000000
vt 0.753711 0.753711
vt 1.000000 0.734818
vn 0.508260 0.301803 0.806590
vn 0.496100 0.496100 0.712580
vn 0.350845 0.350845 0.868226
vn 0.301803 0.508260 0.806590
vn -0.000000 0.515990 0.856595
vn 0.000000 0.410392 0.911909
vn 0.000000 -0.000000 1.000000
vn 0.410392 0.000000 0.911909
vn 0.515990 -0.000000 0.856594
vn -0.301803 0.508260 0.806590
vn -0.496100 0.496100 0.712580
vn -0.350845 0.350845 0.868226
vn -0.508260 0.301803 0.806590
vn -0.515990 0.000000 0.856594
vn -0.410392 0.000000 0.911909
vn -0.508260 -0.301803 0.806590
vn -0.496100 -0.496100 0.712580
vn -0.350845 -0.350845 0.868226
vn -0.301803 -0.508260 0.806590
vn 0.000000 -0.515990 0.856595
vn -0.000000 -0.410392 0.911909
vn 0.301803 -0.508260 0.806590
vn 0.496100 -0.496100 0.712580
vn 0.350845 -0.350845 0.868226
vn 0.508260 -0.301803 0.806590
s 1
g polySurface6 polySurface3 polySurface2 pCube1
usemtl surfaceShader3SG
f 4/1/1 13/2/2 9/3/3
f 9/3/3 13/2/2 14/4/4
f 15/5/5 6/6/6 14/4/4
f 14/4/4 6/6/6 9/3/3
f 6/6/6 2/7/7 9/3/3
f 9/3/3 2/7/7 5/8/8
f 1/9/9 4/1/1 5/8/8
f 5/8/8 4/1/1 9/3/3
f 16/10/10 17/11/11 10/12/12
f 10/12/12 17/11/11 18/13/13
f 19/14/14 7/15/15 18/13/13
f 18/13/13 7/15/15 10/12/12
f 7/15/15 2/7/7 10/12/12
f 10/12/12 2/7/7 6/6/6
f 15/5/5 16/10/10 6/6/6
f 6/6/6 16/10/10 10/12/12
f 20/16/16 21/17/17 11/18/18
f 11/18/18 21/17/17 22/19/19
f 23/20/20 8/21/21 22/19/19
f 22/19/19 8/21/21 11/18/18
f 8/21/21 2/7/7 11/18/18
f 11/18/18 2/7/7 7/15/15
f 19/14/14 20/16/16 7/15/15
f 7/15/15 20/16/16 11/18/18
f 24/22/22 25/23/23 12/24/24
f 12/24/24 25/23/23 3/25/25
f 1/9/9 5/8/8 3/25/25
f 3/25/25 5/8/8 12/24/24
f 5/8/8 2/7/7 12/24/24
f 12/24/24 2/7/7 8/21/21
f 23/20/20 24/22/22 8/21/21
f 8/21/21 24/22/22 12/24/24
