# This file uses centimeters as units for non-parametric coordinates.

mtllib app.mtl
g default
v -280.092590 -280.092590 280.092590
v 280.092590 -280.092590 280.092590
v -280.092590 280.092590 280.092590
v 280.092590 280.092590 280.092590
v -280.092590 280.092590 -280.092590
v 280.092590 280.092590 -280.092590
v -280.092590 -280.092590 -280.092590
v 280.092590 -280.092590 -280.092590
v 0.000000 -353.776062 353.776062
v 0.000000 353.776062 353.776062
v 0.000000 353.776062 -353.776062
v 0.000000 -353.776062 -353.776062
v -353.776062 0.000000 353.776062
v 353.776062 0.000000 353.776062
v -353.776062 353.776062 0.000000
v 353.776062 353.776062 0.000000
v -353.776062 0.000000 -353.776062
v 353.776062 0.000000 -353.776062
v -353.776062 -353.776062 0.000000
v 353.776062 -353.776062 0.000000
v 0.000000 0.000000 483.159729
v 0.000000 483.159729 0.000000
v 0.000000 0.000000 -483.159729
v 0.000000 -483.159729 0.000000
v 483.159729 0.000000 0.000000
v -483.159729 0.000000 0.000000
v -166.145844 -329.427094 329.427094
v 166.145844 -329.427094 329.427094
v -166.145844 329.427094 329.427094
v 166.145844 329.427094 329.427094
v -166.145844 329.427094 -329.427094
v 166.145844 329.427094 -329.427094
v -166.145844 -329.427094 -329.427094
v 166.145844 -329.427094 -329.427094
v -329.427094 -166.145844 329.427094
v -329.427094 166.145844 329.427094
v 329.427094 -166.145844 329.427094
v 329.427094 166.145844 329.427094
v -329.427094 329.427094 166.145844
v -329.427094 329.427094 -166.145844
v 329.427094 329.427094 166.145844
v 329.427094 329.427094 -166.145844
v -329.427094 166.145844 -329.427094
v -329.427094 -166.145844 -329.427094
v 329.427094 166.145844 -329.427094
v 329.427094 -166.145844 -329.427094
v -329.427094 -329.427094 -166.145844
v -329.427094 -329.427094 166.145844
v 329.427094 -329.427094 -166.145844
v 329.427094 -329.427094 166.145844
v -192.881958 0.000000 450.694458
v 0.000000 192.881958 450.694458
v 192.881958 0.000000 450.694458
v 0.000000 -192.881958 450.694458
v -192.881958 450.694458 0.000000
v 0.000000 450.694458 -192.881958
v 192.881958 450.694458 0.000000
v 0.000000 450.694458 192.881958
v -192.881958 0.000000 -450.694458
v 0.000000 -192.881958 -450.694458
v 192.881958 0.000000 -450.694458
v 0.000000 192.881958 -450.694458
v -192.881958 -450.694458 0.000000
v 0.000000 -450.694458 192.881958
v 192.881958 -450.694458 0.000000
v 0.000000 -450.694458 -192.881958
v 450.694458 0.000000 192.881958
v 450.694458 192.881958 0.000000
v 450.694458 0.000000 -192.881958
v 450.694458 -192.881958 0.000000
v -450.694458 0.000000 -192.881958
v -450.694458 192.881958 0.000000
v -450.694458 0.000000 192.881958
v -450.694458 -192.881958 0.000000
v -179.513885 179.513885 420.138885
v 179.513885 179.513885 420.138885
v 179.513885 -179.513885 420.138885
v -179.513885 -179.513885 420.138885
v -179.513885 420.138885 -179.513885
v 179.513885 420.138885 -179.513885
v 179.513885 420.138885 179.513885
v -179.513885 420.138885 179.513885
v -179.513885 -179.513885 -420.138885
v 179.513885 -179.513885 -420.138885
v 179.513885 179.513885 -420.138885
v -179.513885 179.513885 -420.138885
v -179.513885 -420.138885 179.513885
v 179.513885 -420.138885 179.513885
v 179.513885 -420.138885 -179.513885
v -179.513885 -420.138885 -179.513885
v 420.138885 179.513885 179.513885
v 420.138885 179.513885 -179.513885
v 420.138885 -179.513885 -179.513885
v 420.138885 -179.513885 179.513885
v -420.138885 179.513885 -179.513885
v -420.138885 179.513885 179.513885
v -420.138885 -179.513885 179.513885
v -420.138885 -179.513885 -179.513885
vt 0.000000 0.000000
vt 1.000000 0.000000
vt 1.000000 1.000000
vt 0.000000 1.000000
vt 0.000000 -0.000000
vt 1.000000 -0.000000
vt 1.000000 1.000000
vt 0.000000 1.000000
vt 0.000000 0.000000
vt 1.000000 0.000000
vt 1.000000 1.000000
vt 0.000000 1.000000
vt 0.000000 0.000000
vt 1.000000 0.000000
vt 1.000000 1.000000
vt 0.000000 1.000000
vt 0.000000 1.000000
vt 0.000000 0.000000
vt 1.000000 0.000000
vt 1.000000 1.000000
vt 1.000000 0.000000
vt 1.000000 1.000000
vt 0.000000 1.000000
vt 0.000000 0.000000
vt 0.500000 0.500000
vt 0.500000 0.500000
vt 0.500000 0.500000
vt 0.500000 0.500000
vt 0.500000 0.500000
vt 0.500000 0.500000
vt 0.000000 0.500000
vt 0.500000 1.000000
vt 1.000000 0.500000
vt 0.500000 0.000000
vt 0.000000 0.500000
vt 0.500000 1.000000
vt 1.000000 0.500000
vt 0.500000 0.000000
vt 0.000000 0.500000
vt 0.500000 1.000000
vt 1.000000 0.500000
vt 0.500000 -0.000000
vt 0.000000 0.500000
vt 0.500000 1.000000
vt 1.000000 0.500000
vt 0.500000 0.000000
vt 0.500000 1.000000
vt 1.000000 0.500000
vt 0.500000 0.000000
vt 0.000000 0.500000
vt 0.500000 0.000000
vt 0.000000 0.500000
vt 0.500000 1.000000
vt 1.000000 0.500000
vt 0.250000 0.750000
vt 0.750000 0.750000
vt 0.750000 0.250000
vt 0.250000 0.250000
vt 0.250000 0.750000
vt 0.750000 0.750000
vt 0.750000 0.250000
vt 0.250000 0.250000
vt 0.250000 0.750000
vt 0.750000 0.750000
vt 0.750000 0.250000
vt 0.250000 0.250000
vt 0.250000 0.750000
vt 0.750000 0.750000
vt 0.750000 0.250000
vt 0.250000 0.250000
vt 0.750000 0.750000
vt 0.750000 0.250000
vt 0.250000 0.250000
vt 0.250000 0.750000
vt 0.250000 0.250000
vt 0.250000 0.750000
vt 0.750000 0.750000
vt 0.750000 0.250000
vt 0.000000 0.750000
vt 0.250000 1.000000
vt 0.500000 0.750000
vt 0.250000 0.500000
vt 0.750000 1.000000
vt 1.000000 0.750000
vt 0.750000 0.500000
vt 1.000000 0.250000
vt 0.750000 0.000000
vt 0.500000 0.250000
vt 0.250000 0.000000
vt 0.000000 0.250000
vt 0.000000 0.750000
vt 0.250000 1.000000
vt 0.500000 0.750000
vt 0.250000 0.500000
vt 0.750000 1.000000
vt 1.000000 0.750000
vt 0.750000 0.500000
vt 1.000000 0.250000
vt 0.750000 0.000000
vt 0.500000 0.250000
vt 0.250000 0.000000
vt 0.000000 0.250000
vt 0.000000 0.750000
vt 0.250000 1.000000
vt 0.500000 0.750000
vt 0.250000 0.500000
vt 0.750000 1.000000
vt 1.000000 0.750000
vt 0.750000 0.500000
vt 1.000000 0.250000
vt 0.750000 -0.000000
vt 0.500000 0.250000
vt 0.250000 -0.000000
vt 0.000000 0.250000
vt 0.000000 0.750000
vt 0.250000 1.000000
vt 0.500000 0.750000
vt 0.250000 0.500000
vt 0.750000 1.000000
vt 1.000000 0.750000
vt 0.750000 0.500000
vt 1.000000 0.250000
vt 0.750000 0.000000
vt 0.500000 0.250000
vt 0.250000 0.000000
vt 0.000000 0.250000
vt 0.750000 1.000000
vt 1.000000 0.750000
vt 0.750000 0.500000
vt 0.500000 0.750000
vt 1.000000 0.250000
vt 0.750000 0.000000
vt 0.500000 0.250000
vt 0.250000 0.000000
vt 0.000000 0.250000
vt 0.250000 0.500000
vt 0.000000 0.750000
vt 0.250000 1.000000
vt 0.250000 0.000000
vt 0.000000 0.250000
vt 0.250000 0.500000
vt 0.500000 0.250000
vt 0.000000 0.750000
vt 0.250000 1.000000
vt 0.500000 0.750000
vt 0.750000 1.000000
vt 1.000000 0.750000
vt 0.750000 0.500000
vt 1.000000 0.250000
vt 0.750000 0.000000
vn 0.672560 -0.308751 -0.672560
vn 0.577350 -0.577350 -0.577350
vn 0.350845 -0.350845 -0.868226
vn 0.308751 -0.672560 -0.672560
vn -0.000000 -0.707107 -0.707107
vn 0.000000 -0.410392 -0.911909
vn 0.000000 0.000000 -1.000000
vn 0.410392 0.000000 -0.911909
vn 0.707107 0.000000 -0.707107
vn -0.308751 -0.672560 -0.672560
vn -0.577350 -0.577350 -0.577350
vn -0.350845 -0.350845 -0.868226
vn -0.672560 -0.308751 -0.672560
vn -0.707107 -0.000000 -0.707107
vn -0.410392 -0.000000 -0.911909
vn -0.672560 0.308751 -0.672560
vn -0.577350 0.577350 -0.577350
vn -0.350845 0.350845 -0.868226
vn -0.308751 0.672560 -0.672560
vn 0.000000 0.707107 -0.707107
vn -0.000000 0.410392 -0.911909
vn 0.308751 0.672560 -0.672560
vn 0.577350 0.577350 -0.577350
vn 0.350845 0.350845 -0.868226
vn 0.672560 0.308751 -0.672560
vn 0.672560 -0.672560 0.308751
vn 0.577350 -0.577350 0.577350
vn 0.350845 -0.868226 0.350845
vn 0.308751 -0.672560 0.672560
vn 0.000000 -0.707107 0.707107
vn 0.000000 -0.911909 0.410392
vn -0.000000 -1.000000 0.000000
vn 0.410392 -0.911909 -0.000000
vn 0.707107 -0.707107 0.000000
vn -0.308751 -0.672560 0.672560
vn -0.577350 -0.577350 0.577350
vn -0.350845 -0.868226 0.350845
vn -0.672560 -0.672560 0.308751
vn -0.707107 -0.707107 -0.000000
vn -0.410392 -0.911909 0.000000
vn -0.672560 -0.672560 -0.308751
vn -0.350845 -0.868226 -0.350845
vn -0.000000 -0.911909 -0.410392
vn 0.350845 -0.868226 -0.350845
vn 0.672560 -0.672560 -0.308751
vn 0.672560 0.308751 0.672560
vn 0.577350 0.577350 0.577350
vn 0.350845 0.350845 0.868226
vn 0.308751 0.672560 0.672560
vn -0.000000 0.707107 0.707107
vn 0.000000 0.410392 0.911909
vn 0.000000 -0.000000 1.000000
vn 0.410392 0.000000 0.911909
vn 0.707107 -0.000000 0.707107
vn -0.308751 0.672560 0.672560
vn -0.577350 0.577350 0.577350
vn -0.350845 0.350845 0.868226
vn -0.672560 0.308751 0.672560
vn -0.707107 0.000000 0.707107
vn -0.410392 0.000000 0.911909
vn -0.672560 -0.308751 0.672560
vn -0.350845 -0.350845 0.868226
vn -0.000000 -0.410392 0.911909
vn 0.350845 -0.350845 0.868226
vn 0.672560 -0.308751 0.672560
vn 0.672560 0.672560 -0.308751
vn 0.350845 0.868226 -0.350845
vn 0.000000 0.911909 -0.410392
vn -0.000000 1.000000 -0.000000
vn 0.410392 0.911909 0.000000
vn 0.707107 0.707107 -0.000000
vn -0.350845 0.868226 -0.350845
vn -0.672560 0.672560 -0.308751
vn -0.707107 0.707107 0.000000
vn -0.410392 0.911909 -0.000000
vn -0.672560 0.672560 0.308751
vn -0.350845 0.868226 0.350845
vn -0.000000 0.911909 0.410392
vn 0.350845 0.868226 0.350845
vn 0.672560 0.672560 0.308751
vn -0.868226 -0.350845 -0.350845
vn -0.911909 -0.410392 -0.000000
vn -1.000000 -0.000000 0.000000
vn -0.911909 0.000000 -0.410392
vn -0.868226 -0.350845 0.350845
vn -0.911909 -0.000000 0.410392
vn -0.868226 0.350845 0.350845
vn -0.911909 0.410392 0.000000
vn -0.868226 0.350845 -0.350845
vn 0.868226 -0.350845 0.350845
vn 0.911909 -0.410392 0.000000
vn 1.000000 -0.000000 -0.000000
vn 0.911909 0.000000 0.410392
vn 0.868226 -0.350845 -0.350845
vn 0.911909 -0.000000 -0.410392
vn 0.868226 0.350845 -0.350845
vn 0.911909 0.410392 -0.000000
vn 0.868226 0.350845 0.350845
s 1
g pCube1
usemtl initialShadingGroup
f 36/79/1 3/4/2 75/55/3
f 75/55/3 3/4/2 29/80/4
f 10/32/5 52/81/6 29/80/4
f 29/80/4 52/81/6 75/55/3
f 52/81/6 21/25/7 75/55/3
f 75/55/3 21/25/7 51/82/8
f 13/31/9 36/79/1 51/82/8
f 51/82/8 36/79/1 75/55/3
f 30/83/10 4/3/11 76/56/12
f 76/56/12 4/3/11 38/84/13
f 14/33/14 53/85/15 38/84/13
f 38/84/13 53/85/15 76/56/12
f 53/85/15 21/25/7 76/56/12
f 76/56/12 21/25/7 52/81/6
f 10/32/5 30/83/10 52/81/6
f 52/81/6 30/83/10 76/56/12
f 37/86/16 2/2/17 77/57/18
f 77/57/18 2/2/17 28/87/19
f 9/34/20 54/88/21 28/87/19
f 28/87/19 54/88/21 77/57/18
f 54/88/21 21/25/7 77/57/18
f 77/57/18 21/25/7 53/85/15
f 14/33/14 37/86/16 53/85/15
f 53/85/15 37/86/16 77/57/18
f 27/89/22 1/1/23 78/58/24
f 78/58/24 1/1/23 35/90/25
f 13/31/9 51/82/8 35/90/25
f 35/90/25 51/82/8 78/58/24
f 51/82/8 21/25/7 78/58/24
f 78/58/24 21/25/7 54/88/21
f 9/34/20 27/89/22 54/88/21
f 54/88/21 27/89/22 78/58/24
f 40/91/26 5/12/27 79/59/28
f 79/59/28 5/12/27 31/92/29
f 11/36/30 56/93/31 31/92/29
f 31/92/29 56/93/31 79/59/28
f 56/93/31 22/26/32 79/59/28
f 79/59/28 22/26/32 55/94/33
f 15/35/34 40/91/26 55/94/33
f 55/94/33 40/91/26 79/59/28
f 32/95/35 6/11/36 80/60/37
f 80/60/37 6/11/36 42/96/38
f 16/37/39 57/97/40 42/96/38
f 42/96/38 57/97/40 80/60/37
f 57/97/40 22/26/32 80/60/37
f 80/60/37 22/26/32 56/93/31
f 11/36/30 32/95/35 56/93/31
f 56/93/31 32/95/35 80/60/37
f 41/98/41 4/10/11 81/61/42
f 81/61/42 4/10/11 30/99/10
f 10/38/5 58/100/43 30/99/10
f 30/99/10 58/100/43 81/61/42
f 58/100/43 22/26/32 81/61/42
f 81/61/42 22/26/32 57/97/40
f 16/37/39 41/98/41 57/97/40
f 57/97/40 41/98/41 81/61/42
f 29/101/4 3/9/2 82/62/44
f 82/62/44 3/9/2 39/102/45
f 15/35/34 55/94/33 39/102/45
f 39/102/45 55/94/33 82/62/44
f 55/94/33 22/26/32 82/62/44
f 82/62/44 22/26/32 58/100/43
f 10/38/5 29/101/4 58/100/43
f 58/100/43 29/101/4 82/62/44
f 44/103/46 7/8/47 83/63/48
f 83/63/48 7/8/47 33/104/49
f 12/40/50 60/105/51 33/104/49
f 33/104/49 60/105/51 83/63/48
f 60/105/51 23/27/52 83/63/48
f 83/63/48 23/27/52 59/106/53
f 17/39/54 44/103/46 59/106/53
f 59/106/53 44/103/46 83/63/48
f 34/107/55 8/7/56 84/64/57
f 84/64/57 8/7/56 46/108/58
f 18/41/59 61/109/60 46/108/58
f 46/108/58 61/109/60 84/64/57
f 61/109/60 23/27/52 84/64/57
f 84/64/57 23/27/52 60/105/51
f 12/40/50 34/107/55 60/105/51
f 60/105/51 34/107/55 84/64/57
f 45/110/61 6/6/36 85/65/62
f 85/65/62 6/6/36 32/111/35
f 11/42/30 62/112/63 32/111/35
f 32/111/35 62/112/63 85/65/62
f 62/112/63 23/27/52 85/65/62
f 85/65/62 23/27/52 61/109/60
f 18/41/59 45/110/61 61/109/60
f 61/109/60 45/110/61 85/65/62
f 31/113/29 5/5/27 86/66/64
f 86/66/64 5/5/27 43/114/65
f 17/39/54 59/106/53 43/114/65
f 43/114/65 59/106/53 86/66/64
f 59/106/53 23/27/52 86/66/64
f 86/66/64 23/27/52 62/112/63
f 11/42/30 31/113/29 62/112/63
f 62/112/63 31/113/29 86/66/64
f 48/115/66 1/16/23 87/67/67
f 87/67/67 1/16/23 27/116/22
f 9/44/20 64/117/68 27/116/22
f 27/116/22 64/117/68 87/67/67
f 64/117/68 24/28/69 87/67/67
f 87/67/67 24/28/69 63/118/70
f 19/43/71 48/115/66 63/118/70
f 63/118/70 48/115/66 87/67/67
f 28/119/19 2/15/17 88/68/72
f 88/68/72 2/15/17 50/120/73
f 20/45/74 65/121/75 50/120/73
f 50/120/73 65/121/75 88/68/72
f 65/121/75 24/28/69 88/68/72
f 88/68/72 24/28/69 64/117/68
f 9/44/20 28/119/19 64/117/68
f 64/117/68 28/119/19 88/68/72
f 49/122/76 8/14/56 89/69/77
f 89/69/77 8/14/56 34/123/55
f 12/46/50 66/124/78 34/123/55
f 34/123/55 66/124/78 89/69/77
f 66/124/78 24/28/69 89/69/77
f 89/69/77 24/28/69 65/121/75
f 20/45/74 49/122/76 65/121/75
f 65/121/75 49/122/76 89/69/77
f 33/125/49 7/13/47 90/70/79
f 90/70/79 7/13/47 47/126/80
f 19/43/71 63/118/70 47/126/80
f 47/126/80 63/118/70 90/70/79
f 63/118/70 24/28/69 90/70/79
f 90/70/79 24/28/69 66/124/78
f 12/46/50 33/125/49 66/124/78
f 66/124/78 33/125/49 90/70/79
f 38/127/13 4/20/11 91/71/81
f 91/71/81 4/20/11 41/128/41
f 16/48/39 68/129/82 41/128/41
f 41/128/41 68/129/82 91/71/81
f 68/129/82 25/29/83 91/71/81
f 91/71/81 25/29/83 67/130/84
f 14/47/14 38/127/13 67/130/84
f 67/130/84 38/127/13 91/71/81
f 42/131/38 6/19/36 92/72/85
f 92/72/85 6/19/36 45/132/61
f 18/49/59 69/133/86 45/132/61
f 45/132/61 69/133/86 92/72/85
f 69/133/86 25/29/83 92/72/85
f 92/72/85 25/29/83 68/129/82
f 16/48/39 42/131/38 68/129/82
f 68/129/82 42/131/38 92/72/85
f 46/134/58 8/18/56 93/73/87
f 93/73/87 8/18/56 49/135/76
f 20/50/74 70/136/88 49/135/76
f 49/135/76 70/136/88 93/73/87
f 70/136/88 25/29/83 93/73/87
f 93/73/87 25/29/83 69/133/86
f 18/49/59 46/134/58 69/133/86
f 69/133/86 46/134/58 93/73/87
f 50/137/73 2/17/17 94/74/89
f 94/74/89 2/17/17 37/138/16
f 14/47/14 67/130/84 37/138/16
f 37/138/16 67/130/84 94/74/89
f 67/130/84 25/29/83 94/74/89
f 94/74/89 25/29/83 70/136/88
f 20/50/74 50/137/73 70/136/88
f 70/136/88 50/137/73 94/74/89
f 43/139/65 5/24/27 95/75/90
f 95/75/90 5/24/27 40/140/26
f 15/52/34 72/141/91 40/140/26
f 40/140/26 72/141/91 95/75/90
f 72/141/91 26/30/92 95/75/90
f 95/75/90 26/30/92 71/142/93
f 17/51/54 43/139/65 71/142/93
f 71/142/93 43/139/65 95/75/90
f 39/143/45 3/23/2 96/76/94
f 96/76/94 3/23/2 36/144/1
f 13/53/9 73/145/95 36/144/1
f 36/144/1 73/145/95 96/76/94
f 73/145/95 26/30/92 96/76/94
f 96/76/94 26/30/92 72/141/91
f 15/52/34 39/143/45 72/141/91
f 72/141/91 39/143/45 96/76/94
f 35/146/25 1/22/23 97/77/96
f 97/77/96 1/22/23 48/147/66
f 19/54/71 74/148/97 48/147/66
f 48/147/66 74/148/97 97/77/96
f 74/148/97 26/30/92 97/77/96
f 97/77/96 26/30/92 73/145/95
f 13/53/9 35/146/25 73/145/95
f 73/145/95 35/146/25 97/77/96
f 47/149/80 7/21/47 98/78/98
f 98/78/98 7/21/47 44/150/46
f 17/51/54 71/142/93 44/150/46
f 44/150/46 71/142/93 98/78/98
f 71/142/93 26/30/92 98/78/98
f 98/78/98 26/30/92 74/148/97
f 19/54/71 47/149/80 74/148/97
f 74/148/97 47/149/80 98/78/98
