# This file uses centimeters as units for non-parametric coordinates.

mtllib nx.mtl
g default
v 0.000000 0.000000 483.159729
v -192.881958 -0.000000 450.694458
v 0.000000 192.881958 450.694458
v 192.881958 0.000000 450.694458
v -0.000000 -192.881958 450.694458
v -179.513885 179.513885 420.138885
v 179.513885 179.513885 420.138885
v 179.513885 -179.513885 420.138885
v -179.513885 -179.513885 420.138885
v -329.427094 166.145844 329.427094
v -280.092590 280.092590 280.092590
v -166.145844 329.427094 329.427094
v 0.000000 353.776062 353.776062
v -353.776062 0.000000 353.776062
v 166.145844 329.427094 329.427094
v 280.092590 280.092590 280.092590
v 329.427094 166.145844 329.427094
v 353.776062 -0.000000 353.776062
v 329.427094 -166.145844 329.427094
v 280.092590 -280.092590 280.092590
v 166.145844 -329.427094 329.427094
v -0.000000 -353.776062 353.776062
v -166.145844 -329.427094 329.427094
v -280.092590 -280.092590 280.092590
v -329.427094 -166.145844 329.427094
vt 0.000000 0.750000
vt 0.000000 1.000000
vt 0.250000 0.750000
vt 0.250000 1.000000
vt 0.500000 1.000000
vt 0.500000 0.750000
vt 0.500000 0.500000
vt 0.250000 0.500000
vt 0.000000 0.500000
vt 0.750000 1.000000
vt 1.000000 1.000000
vt 0.750000 0.750000
vt 1.000000 0.750000
vt 1.000000 0.500000
vt 0.750000 0.500000
vt 1.000000 0.250000
vt 1.000000 0.000000
vt 0.750000 0.250000
vt 0.750000 0.000000
vt 0.500000 0.000000
vt 0.500000 0.250000
vt 0.250000 0.000000
vt 0.000000 0.000000
vt 0.250000 0.250000
vt 0.000000 0.250000
vn 0.508260 -0.301803 -0.806590
vn 0.496100 -0.496100 -0.712580
vn 0.350845 -0.350845 -0.868226
vn 0.301803 -0.508260 -0.806590
vn -0.000000 -0.515990 -0.856595
vn 0.000000 -0.410392 -0.911909
vn 0.000000 0.000000 -1.000000
vn 0.410392 0.000000 -0.911909
vn 0.515990 0.000000 -0.856594
vn -0.301803 -0.508260 -0.806590
vn -0.496100 -0.496100 -0.712580
vn -0.350845 -0.350845 -0.868226
vn -0.508260 -0.301803 -0.806590
vn -0.515990 -0.000000 -0.856594
vn -0.410392 -0.000000 -0.911909
vn -0.508260 0.301803 -0.806590
vn -0.496100 0.496100 -0.712580
vn -0.350845 0.350845 -0.868226
vn -0.301803 0.508260 -0.806590
vn 0.000000 0.515990 -0.856595
vn -0.000000 0.410392 -0.911909
vn 0.301803 0.508260 -0.806590
vn 0.496100 0.496100 -0.712580
vn 0.350845 0.350845 -0.868226
vn 0.508260 0.301803 -0.806590
s 1
g polySurface1 pCube1
usemtl surfaceShader1SG
f 10/1/1 11/2/2 6/3/3
f 6/3/3 11/2/2 12/4/4
f 13/5/5 3/6/6 12/4/4
f 12/4/4 3/6/6 6/3/3
f 3/6/6 1/7/7 6/3/3
f 6/3/3 1/7/7 2/8/8
f 14/9/9 10/1/1 2/8/8
f 2/8/8 10/1/1 6/3/3
f 15/10/10 16/11/11 7/12/12
f 7/12/12 16/11/11 17/13/13
f 18/14/14 4/15/15 17/13/13
f 17/13/13 4/15/15 7/12/12
f 4/15/15 1/7/7 7/12/12
f 7/12/12 1/7/7 3/6/6
f 13/5/5 15/10/10 3/6/6
f 3/6/6 15/10/10 7/12/12
f 19/16/16 20/17/17 8/18/18
f 8/18/18 20/17/17 21/19/19
f 22/20/20 5/21/21 21/19/19
f 21/19/19 5/21/21 8/18/18
f 5/21/21 1/7/7 8/18/18
f 8/18/18 1/7/7 4/15/15
f 18/14/14 19/16/16 4/15/15
f 4/15/15 19/16/16 8/18/18
f 23/22/22 24/23/23 9/24/24
f 9/24/24 24/23/23 25/25/25
f 14/9/9 2/8/8 25/25/25
f 25/25/25 2/8/8 9/24/24
f 2/8/8 1/7/7 9/24/24
f 9/24/24 1/7/7 5/21/21
f 22/20/20 23/22/22 5/21/21
f 5/21/21 23/22/22 9/24/24
