# This file uses centimeters as units for non-parametric coordinates.

mtllib right.mtl
g default
v 353.776062 -0.000000 353.776062
v 353.776062 0.000000 -353.776062
v 483.159729 -0.000000 -0.000000
v 329.427094 -166.145844 329.427094
v 329.427094 166.145844 329.427094
v 329.427094 166.145844 -329.427094
v 329.427094 -166.145844 -329.427094
v 450.694458 0.000000 192.881958
v 450.694458 192.881958 -0.000000
v 450.694458 -0.000000 -192.881958
v 450.694458 -192.881958 0.000000
v 420.138885 179.513885 179.513885
v 420.138885 179.513885 -179.513885
v 420.138885 -179.513885 -179.513885
v 420.138885 -179.513885 179.513885
v 280.092590 280.092590 280.092590
v 329.427094 329.427094 166.145844
v 353.776062 353.776062 0.000000
v 329.427094 329.427094 -166.145844
v 280.092590 280.092590 -280.092590
v 280.092590 -280.092590 -280.092590
v 329.427094 -329.427094 -166.145844
v 353.776062 -353.776062 -0.000000
v 329.427094 -329.427094 166.145844
v 280.092590 -280.092590 280.092590
vt 0.750000 1.000000
vt 1.000000 1.000000
vt 0.750000 0.750000
vt 1.000000 0.750000
vt 1.000000 0.500000
vt 0.750000 0.500000
vt 0.500000 0.500000
vt 0.500000 0.750000
vt 0.500000 1.000000
vt 1.000000 0.250000
vt 1.000000 0.000000
vt 0.750000 0.250000
vt 0.750000 0.000000
vt 0.500000 0.000000
vt 0.500000 0.250000
vt 0.250000 0.000000
vt 0.000000 0.000000
vt 0.250000 0.250000
vt 0.000000 0.250000
vt 0.000000 0.500000
vt 0.250000 0.500000
vt 0.000000 0.750000
vt 0.000000 1.000000
vt 0.250000 0.750000
vt 0.250000 1.000000
vn -0.806590 -0.301803 -0.508260
vn -0.712580 -0.496100 -0.496100
vn -0.868226 -0.350845 -0.350845
vn -0.806590 -0.508260 -0.301803
vn -0.856594 -0.515990 -0.000000
vn -0.911909 -0.410392 -0.000000
vn -1.000000 -0.000000 0.000000
vn -0.911909 0.000000 -0.410392
vn -0.856595 -0.000000 -0.515990
vn -0.806590 -0.508260 0.301803
vn -0.712580 -0.496100 0.496100
vn -0.868226 -0.350845 0.350845
vn -0.806590 -0.301803 0.508260
vn -0.856595 0.000000 0.515990
vn -0.911909 -0.000000 0.410392
vn -0.806590 0.301803 0.508260
vn -0.712580 0.496100 0.496100
vn -0.868226 0.350845 0.350845
vn -0.806590 0.508260 0.301803
vn -0.856594 0.515990 0.000000
vn -0.911909 0.410392 0.000000
vn -0.806590 0.508260 -0.301803
vn -0.712580 0.496100 -0.496100
vn -0.868226 0.350845 -0.350845
vn -0.806590 0.301803 -0.508260
s 1
g polySurface7 polySurface5 polySurface3 polySurface2 pCube1
usemtl initialShadingGroup
f 5/1/1 16/2/2 12/3/3
f 12/3/3 16/2/2 17/4/4
f 18/5/5 9/6/6 17/4/4
f 17/4/4 9/6/6 12/3/3
f 9/6/6 3/7/7 12/3/3
f 12/3/3 3/7/7 8/8/8
f 1/9/9 5/1/1 8/8/8
f 8/8/8 5/1/1 12/3/3
f 19/10/10 20/11/11 13/12/12
f 13/12/12 20/11/11 6/13/13
f 2/14/14 10/15/15 6/13/13
f 6/13/13 10/15/15 13/12/12
f 10/15/15 3/7/7 13/12/12
f 13/12/12 3/7/7 9/6/6
f 18/5/5 19/10/10 9/6/6
f 9/6/6 19/10/10 13/12/12
f 7/16/16 21/17/17 14/18/18
f 14/18/18 21/17/17 22/19/19
f 23/20/20 11/21/21 22/19/19
f 22/19/19 11/21/21 14/18/18
f 11/21/21 3/7/7 14/18/18
f 14/18/18 3/7/7 10/15/15
f 2/14/14 7/16/16 10/15/15
f 10/15/15 7/16/16 14/18/18
f 24/22/22 25/23/23 15/24/24
f 15/24/24 25/23/23 4/25/25
f 1/9/9 8/8/8 4/25/25
f 4/25/25 8/8/8 15/24/24
f 8/8/8 3/7/7 15/24/24
f 15/24/24 3/7/7 11/21/21
f 23/20/20 24/22/22 11/21/21
f 11/21/21 24/22/22 15/24/24
